<svg width="26" height="26" viewBox="0 0 26 26" fill="none" xmlns="http://www.w3.org/2000/svg">
<path d="M10.8334 6.5V5.41667H15.1667V6.5H17.3334V5.41667C17.3334 4.84203 17.1051 4.29093 16.6988 3.8846C16.2925 3.47827 15.7414 3.25 15.1667 3.25H10.8334C10.2588 3.25 9.70768 3.47827 9.30135 3.8846C8.89502 4.29093 8.66675 4.84203 8.66675 5.41667V6.5H10.8334Z" fill="#9194A1"/>
<path opacity="0.25" d="M9.75008 16.25C9.46276 16.25 9.18721 16.1359 8.98405 15.9327C8.78088 15.7296 8.66675 15.454 8.66675 15.1667V13C8.66675 12.7127 8.78088 12.4372 8.98405 12.234C9.18721 12.0308 9.46276 11.9167 9.75008 11.9167C10.0374 11.9167 10.3129 12.0308 10.5161 12.234C10.7193 12.4372 10.8334 12.7127 10.8334 13V15.1667C10.8334 15.454 10.7193 15.7296 10.5161 15.9327C10.3129 16.1359 10.0374 16.25 9.75008 16.25ZM16.2501 16.25C15.9628 16.25 15.6872 16.1359 15.484 15.9327C15.2809 15.7296 15.1667 15.454 15.1667 15.1667V13C15.1667 12.7127 15.2809 12.4372 15.484 12.234C15.6872 12.0308 15.9628 11.9167 16.2501 11.9167C16.5374 11.9167 16.8129 12.0308 17.0161 12.234C17.2193 12.4372 17.3334 12.7127 17.3334 13V15.1667C17.3334 15.454 17.2193 15.7296 17.0161 15.9327C16.8129 16.1359 16.5374 16.25 16.2501 16.25Z" fill="#9194A1"/>
<path opacity="0.5" d="M21.6667 6.5H4.33341C3.75878 6.5 3.20768 6.72827 2.80135 7.1346C2.39502 7.54093 2.16675 8.09203 2.16675 8.66667V11.9167C2.16675 12.4913 2.39502 13.0424 2.80135 13.4487C3.20768 13.8551 3.75878 14.0833 4.33341 14.0833H8.66675V13C8.66675 12.7127 8.78088 12.4371 8.98405 12.234C9.18721 12.0308 9.46276 11.9167 9.75008 11.9167C10.0374 11.9167 10.3129 12.0308 10.5161 12.234C10.7193 12.4371 10.8334 12.7127 10.8334 13V14.0833H15.1667V13C15.1667 12.7127 15.2809 12.4371 15.484 12.234C15.6872 12.0308 15.9628 11.9167 16.2501 11.9167C16.5374 11.9167 16.8129 12.0308 17.0161 12.234C17.2193 12.4371 17.3334 12.7127 17.3334 13V14.0833H21.6667C22.2414 14.0833 22.7925 13.8551 23.1988 13.4487C23.6051 13.0424 23.8334 12.4913 23.8334 11.9167V8.66667C23.8334 8.09203 23.6051 7.54093 23.1988 7.1346C22.7925 6.72827 22.2414 6.5 21.6667 6.5Z" fill="#9194A1"/>
<path d="M21.6667 14.0834H17.3334V15.1667C17.3334 15.454 17.2193 15.7296 17.0161 15.9327C16.8129 16.1359 16.5374 16.25 16.2501 16.25C15.9628 16.25 15.6872 16.1359 15.484 15.9327C15.2809 15.7296 15.1667 15.454 15.1667 15.1667V14.0834H10.8334V15.1667C10.8334 15.454 10.7193 15.7296 10.5161 15.9327C10.3129 16.1359 10.0374 16.25 9.75008 16.25C9.46276 16.25 9.18721 16.1359 8.98405 15.9327C8.78088 15.7296 8.66675 15.454 8.66675 15.1667V14.0834H4.33341C3.75878 14.0834 3.20768 13.8551 2.80135 13.4488C2.39502 13.0424 2.16675 12.4913 2.16675 11.9167V20.5834C2.16675 21.158 2.39502 21.7091 2.80135 22.1154C3.20768 22.5217 3.75878 22.75 4.33341 22.75H21.6667C22.2414 22.75 22.7925 22.5217 23.1988 22.1154C23.6051 21.7091 23.8334 21.158 23.8334 20.5834V11.9167C23.8334 12.4913 23.6051 13.0424 23.1988 13.4488C22.7925 13.8551 22.2414 14.0834 21.6667 14.0834Z" fill="#9194A1"/>
</svg>
