<svg width="26" height="26" viewBox="0 0 26 26" fill="none" xmlns="http://www.w3.org/2000/svg">
<path d="M5.46765 3.52148H20.1299C20.6854 3.52148 21.2181 3.74216 21.611 4.13498C22.0038 4.52779 22.2245 5.06056 22.2245 5.61608V20.2783C22.2245 20.8338 22.0038 21.3666 21.611 21.7594C21.2181 22.1522 20.6854 22.3729 20.1299 22.3729H5.46765C4.91212 22.3729 4.37935 22.1522 3.98654 21.7594C3.59373 21.3666 3.37305 20.8338 3.37305 20.2783V5.61608C3.37305 5.06056 3.59373 4.52779 3.98654 4.13498C4.37935 3.74216 4.91212 3.52148 5.46765 3.52148ZM19.0826 5.61608H16.4643C15.4921 5.61608 14.5598 6.00228 13.8724 6.6897C13.1849 7.37712 12.7987 8.30947 12.7987 9.28164V11.8999H10.7041V15.0418H12.7987V22.3729H15.9406V15.0418H19.0826V11.8999H15.9406V9.80529C15.9406 9.52752 16.051 9.26114 16.2474 9.06473C16.4438 8.86833 16.7102 8.75799 16.9879 8.75799H19.0826V5.61608Z" fill="#FBBB0C"/>
</svg>
