<svg width="33" height="37" viewBox="0 0 33 37" fill="none" xmlns="http://www.w3.org/2000/svg">
<g clip-path="url(#clip0_697_8518)">
<path d="M15.2707 18.04L0.459106 33.8323C0.62544 34.4322 0.924345 34.9854 1.33297 35.4497C1.7416 35.914 2.24914 36.2771 2.81678 36.5112C3.38442 36.7453 3.99714 36.8442 4.60811 36.8004C5.21907 36.7565 5.8121 36.5711 6.34186 36.2583L23.0077 26.5989L15.2707 18.04Z" fill="#EA4335"/>
<path d="M30.2479 15.3562L23.041 11.1553L14.9288 18.3998L23.074 26.5768L30.226 22.4209C30.8596 22.0832 31.3903 21.5756 31.7606 20.9529C32.1309 20.3302 32.3266 19.6163 32.3266 18.8885C32.3266 18.1606 32.1309 17.4467 31.7606 16.824C31.3903 16.2014 30.8596 15.6937 30.226 15.3561L30.2479 15.3562Z" fill="#FBBC04"/>
<path d="M0.459199 3.86523C0.369723 4.20207 0.325157 4.54962 0.326699 4.89855V32.7988C0.327582 33.1476 0.372107 33.4949 0.459199 33.8322L15.7786 18.4443L0.459199 3.86523Z" fill="#4285F4"/>
<path d="M15.3812 18.8492L23.0409 11.1552L6.39717 1.45076C5.77095 1.07755 5.05873 0.879905 4.33304 0.877937C2.53217 0.874376 0.948917 2.09074 0.459167 3.85449L15.3812 18.8492Z" fill="#34A853"/>
</g>
<defs>
<clipPath id="clip0_697_8518">
<rect width="32" height="36" fill="white" transform="translate(0.32666 0.87793)"/>
</clipPath>
</defs>
</svg>
