<svg width="26" height="26" viewBox="0 0 26 26" fill="none" xmlns="http://www.w3.org/2000/svg">
<path d="M8.27747 2.47461H17.0748C20.4262 2.47461 23.1491 5.19759 23.1491 8.54895V17.3463C23.1491 18.9573 22.5092 20.5023 21.37 21.6415C20.2308 22.7806 18.6858 23.4206 17.0748 23.4206H8.27747C4.92611 23.4206 2.20312 20.6976 2.20312 17.3463V8.54895C2.20313 6.93794 2.8431 5.3929 3.98226 4.25374C5.12142 3.11458 6.66645 2.47461 8.27747 2.47461ZM8.06801 4.56921C7.06807 4.56921 6.10908 4.96644 5.40202 5.6735C4.69495 6.38056 4.29773 7.33955 4.29773 8.33949V17.5557C4.29773 19.6399 5.98388 21.326 8.06801 21.326H17.2842C18.2842 21.326 19.2432 20.9288 19.9502 20.2217C20.6573 19.5147 21.0545 18.5557 21.0545 17.5557V8.33949C21.0545 6.25536 19.3684 4.56921 17.2842 4.56921H8.06801ZM18.1745 6.14016C18.5217 6.14016 18.8546 6.27809 19.1001 6.52359C19.3457 6.7691 19.4836 7.10208 19.4836 7.44929C19.4836 7.79649 19.3457 8.12947 19.1001 8.37498C18.8546 8.62049 18.5217 8.75841 18.1745 8.75841C17.8273 8.75841 17.4943 8.62049 17.2488 8.37498C17.0033 8.12947 16.8653 7.79649 16.8653 7.44929C16.8653 7.10208 17.0033 6.7691 17.2488 6.52359C17.4943 6.27809 17.8273 6.14016 18.1745 6.14016ZM12.6761 7.71111C14.0649 7.71111 15.3969 8.26281 16.3789 9.24485C17.3609 10.2269 17.9126 11.5588 17.9126 12.9476C17.9126 14.3364 17.3609 15.6683 16.3789 16.6504C15.3969 17.6324 14.0649 18.1841 12.6761 18.1841C11.2873 18.1841 9.9554 17.6324 8.97336 16.6504C7.99133 15.6683 7.43963 14.3364 7.43963 12.9476C7.43963 11.5588 7.99133 10.2269 8.97336 9.24485C9.9554 8.26281 11.2873 7.71111 12.6761 7.71111ZM12.6761 9.80571C11.8428 9.80571 11.0437 10.1367 10.4545 10.726C9.86525 11.3152 9.53423 12.1143 9.53423 12.9476C9.53423 13.7809 9.86525 14.5801 10.4545 15.1693C11.0437 15.7585 11.8428 16.0895 12.6761 16.0895C13.5094 16.0895 14.3086 15.7585 14.8978 15.1693C15.487 14.5801 15.818 13.7809 15.818 12.9476C15.818 12.1143 15.487 11.3152 14.8978 10.726C14.3086 10.1367 13.5094 9.80571 12.6761 9.80571Z" fill="#FBBB0C"/>
</svg>
