<svg width="27" height="26" viewBox="0 0 27 26" fill="none" xmlns="http://www.w3.org/2000/svg">
<path d="M20.8867 3.52148C21.4422 3.52148 21.975 3.74216 22.3678 4.13498C22.7606 4.52779 22.9813 5.06056 22.9813 5.61608V20.2783C22.9813 20.8338 22.7606 21.3666 22.3678 21.7594C21.975 22.1522 21.4422 22.3729 20.8867 22.3729H6.22448C5.66896 22.3729 5.13619 22.1522 4.74338 21.7594C4.35056 21.3666 4.12988 20.8338 4.12988 20.2783V5.61608C4.12988 5.06056 4.35056 4.52779 4.74338 4.13498C5.13619 3.74216 5.66896 3.52148 6.22448 3.52148H20.8867ZM20.363 19.7546V14.2039C20.363 13.2984 20.0033 12.43 19.363 11.7897C18.7228 11.1495 17.8543 10.7897 16.9488 10.7897C16.0586 10.7897 15.0218 11.3343 14.5191 12.1512V10.9887H11.5971V19.7546H14.5191V14.5914C14.5191 13.785 15.1684 13.1252 15.9748 13.1252C16.3637 13.1252 16.7367 13.2797 17.0116 13.5547C17.2866 13.8296 17.4411 14.2026 17.4411 14.5914V19.7546H20.363ZM8.19341 9.34447C8.66005 9.34447 9.10757 9.1591 9.43754 8.82914C9.7675 8.49918 9.95287 8.05165 9.95287 7.58501C9.95287 6.61102 9.1674 5.81507 8.19341 5.81507C7.72399 5.81507 7.2738 6.00155 6.94187 6.33347C6.60995 6.6654 6.42347 7.11559 6.42347 7.58501C6.42347 8.559 7.21942 9.34447 8.19341 9.34447ZM9.64916 19.7546V10.9887H6.74813V19.7546H9.64916Z" fill="#FBBB0C"/>
</svg>
