<svg width="65" height="62" viewBox="0 0 65 62" fill="none" xmlns="http://www.w3.org/2000/svg">
<path d="M34.0272 60.4509C33.6131 59.9806 33.2366 58.425 32.8601 55.3139C32.1448 49.4172 32.1072 48.2596 32.8225 48.8022C33.2743 49.164 35.0814 47.5722 42.9877 39.9391C50.4045 32.74 52.5128 30.4971 52.174 30.1353C51.6845 29.5204 51.4963 29.5204 57.7083 30.4248C61.6615 31.0397 63.2051 31.4015 63.8074 31.9442L64.6734 32.6677L49.915 46.9211C41.7829 54.7351 35.0438 61.1383 34.8932 61.1383C34.7802 61.1383 34.4037 60.8489 34.0272 60.4509Z" fill="#F9FAFB"/>
<path d="M26.6481 30.75V24.2383H31.0906C34.9308 24.2383 35.7591 24.3468 37.1897 25.0703C41.2182 26.9877 42.0841 32.1608 38.9216 35.1996C37.265 36.7914 35.4202 37.2617 30.6388 37.2617H26.6481V30.75ZM36.1732 33.2823C36.9638 32.4503 37.1897 31.8353 37.1897 30.5691C37.1897 29.7009 37.0391 28.905 36.8509 28.7965C36.5121 28.5794 31.1659 34.0058 31.1659 34.5485C31.1659 34.6932 32.0695 34.7293 33.1613 34.6208C34.7049 34.4399 35.3449 34.1505 36.1732 33.2823ZM33.3872 30.2435C35.6461 27.9282 35.7591 27.7112 35.119 27.2771C34.7426 26.9877 33.5002 26.7706 32.4083 26.7706H30.413V29.8818C30.413 31.582 30.5635 32.9205 30.7141 32.8482C30.8647 32.812 32.0695 31.6182 33.3872 30.2435Z" fill="white"/>
<path d="M5.37656 30.1347C2.89174 29.8453 0.632813 29.4112 0.406921 29.1941C0.0304327 28.8323 3.07998 25.685 14.7888 14.3619L29.66 0V6.76493V13.566L21.302 21.5971C14.0734 28.5429 13.0193 29.7006 13.4334 30.1709C13.8852 30.6773 13.6969 30.7497 11.9275 30.7135C10.798 30.6773 7.86138 30.4241 5.37656 30.1347Z" fill="#F9FAFB"/>
<path d="M32.6718 59.2919C31.7306 58.4599 27.5892 54.589 23.4479 50.682C19.3065 46.775 12.3415 40.2271 7.93655 36.103C3.56929 32.0151 0.0303091 28.5784 0.143255 28.5061C0.218553 28.4337 3.11751 28.6508 6.5812 29.0125L12.9062 29.6999L23.1467 39.5398L33.4248 49.3797L33.9895 54.372C34.8178 61.0645 34.7801 61.1369 32.6718 59.2919Z" fill="#FBBB0C"/>
<path d="M57.7082 31.7266L52.8139 30.9669L47.3548 25.6129L41.9333 20.2588H47.0159H52.0609L57.3317 25.432C60.2683 28.2537 63.0167 31.0031 63.5438 31.5819L64.4097 32.5587L63.5061 32.5225C63.0167 32.4863 60.4189 32.1245 57.7082 31.7266Z" fill="#FBBB0C"/>
</svg>
