<svg width="26" height="26" viewBox="0 0 26 26" fill="none" xmlns="http://www.w3.org/2000/svg">
<path d="M24.39 6.66296C23.5836 7.02952 22.7143 7.27039 21.8136 7.3856C22.7353 6.83053 23.4474 5.9508 23.7826 4.89302C22.9133 5.41667 21.9498 5.78323 20.9339 5.99269C20.1065 5.09201 18.944 4.56836 17.6244 4.56836C15.1633 4.56836 13.1525 6.57918 13.1525 9.06128C13.1525 9.41736 13.1944 9.76297 13.2677 10.0876C9.53927 9.89912 6.21933 8.10823 4.00953 5.39573C3.62203 6.05553 3.40209 6.83053 3.40209 7.64742C3.40209 9.2079 4.18757 10.5903 5.40244 11.3758C4.65885 11.3758 3.96764 11.1664 3.3602 10.8522V10.8836C3.3602 13.062 4.91021 14.8843 6.96291 15.2927C6.30388 15.4731 5.612 15.4982 4.94162 15.366C5.22608 16.2588 5.78317 17.04 6.53458 17.5998C7.286 18.1596 8.19396 18.4699 9.13083 18.487C7.54273 19.7442 5.57419 20.4238 3.54871 20.414C3.19263 20.414 2.83655 20.3931 2.48047 20.3512C4.47034 21.6289 6.83724 22.3725 9.3717 22.3725C17.6244 22.3725 22.1592 15.5231 22.1592 9.58493C22.1592 9.38594 22.1592 9.19743 22.1488 8.99844C23.0285 8.37006 23.7826 7.57411 24.39 6.66296Z" fill="#FBBB0C"/>
</svg>
