<svg width="26" height="26" viewBox="0 0 26 26" fill="none" xmlns="http://www.w3.org/2000/svg">
<path d="M13 14.0834C15.5957 14.0834 17.9563 14.8352 19.6928 15.8936C20.5595 16.4245 21.3005 17.0474 21.8357 17.7245C22.3622 18.3918 22.75 19.1891 22.75 20.0417C22.75 20.9571 22.3048 21.6786 21.6634 22.1932C21.0568 22.6807 20.2562 23.0035 19.4058 23.2289C17.6963 23.6806 15.4148 23.8334 13 23.8334C10.5853 23.8334 8.30375 23.6817 6.59425 23.2289C5.74383 23.0035 4.94325 22.6807 4.33658 22.1932C3.69417 21.6775 3.25 20.9571 3.25 20.0417C3.25 19.1891 3.63783 18.3918 4.16433 17.7245C4.6995 17.0474 5.43942 16.4245 6.30717 15.8936C8.04375 14.8352 10.4054 14.0834 13 14.0834Z" fill="#9194A1"/>
<path opacity="0.3" d="M13.0001 2.16663C17.1698 2.16663 19.7763 6.68088 17.6909 10.2916C17.2155 11.115 16.5317 11.7988 15.7083 12.2742C14.8849 12.7496 13.9509 12.9999 13.0001 13C8.8303 13 6.2238 8.48571 8.30922 4.87496C8.78462 4.05154 9.46838 3.36777 10.2918 2.89236C11.1152 2.41695 12.0493 2.16665 13.0001 2.16663Z" fill="#9194A1"/>
</svg>
